<svg width="20" height="20" viewBox="0 0 20 20" fill="none" xmlns="http://www.w3.org/2000/svg">
<path fill-rule="evenodd" clip-rule="evenodd" d="M4.7189 9.96164C4.7189 7.24188 6.94068 5.05841 9.62213 5.05841C12.3036 5.05841 14.5254 7.28018 14.5254 9.96164C14.5254 12.6431 12.3419 14.8649 9.62213 14.8649C6.90237 14.8649 4.7189 12.6814 4.7189 9.96164ZM6.48115 9.9616C6.48115 11.6854 7.89848 13.1027 9.62228 13.1027C11.3461 13.1027 12.7634 11.6854 12.7634 9.9616C12.7634 8.23781 11.3461 6.82047 9.62228 6.82047C7.89848 6.82047 6.48115 8.23781 6.48115 9.9616Z" fill="white"/>
<circle cx="14.717" cy="4.94332" r="1.11089" fill="white"/>
<path fill-rule="evenodd" clip-rule="evenodd" d="M13.5678 0.5C15.1767 0.5 16.594 1.03629 17.59 2.07056C18.5859 3.06653 19.1222 4.44556 19.1222 6.05444V13.9456C19.1222 15.5927 18.5859 17.0101 17.5517 18.006C16.5557 18.9637 15.1767 19.5 13.5295 19.5H5.71496C4.1444 19.5 2.76537 19.002 1.73109 18.006C0.658513 16.9718 0.122223 15.5544 0.122223 13.9073V6.05444C0.122223 2.72177 2.344 0.5 5.67666 0.5H13.5678ZM16.326 16.7421C17.0155 16.0909 17.4369 15.1332 17.4369 13.9457V6.05457C17.4369 4.94368 17.0538 3.98602 16.4026 3.29651C15.7131 2.60699 14.7554 2.26223 13.6062 2.26223H5.7151C4.56591 2.26223 3.56994 2.60699 2.91873 3.2582C2.22921 3.94772 1.88445 4.90538 1.88445 6.05457V13.9074C1.88445 15.0949 2.22921 16.0526 2.91873 16.7421C3.60824 17.3933 4.56591 17.738 5.7151 17.738H13.5296C14.6788 17.738 15.6365 17.3933 16.326 16.7421Z" fill="white"/>
</svg>
