<svg width="30" height="16" viewBox="0 0 30 16" fill="none" xmlns="http://www.w3.org/2000/svg">
<path d="M16.8724 8.00001C16.8724 12.4183 13.3151 16 8.92693 16C4.53874 16 0.981415 12.4183 0.981415 8.00001C0.981415 3.5817 4.53874 0 8.92693 0C13.3151 0 16.8724 3.5817 16.8724 8.00001Z" fill="white"/>
<path d="M25.5888 8.00014C25.5888 12.1592 23.8101 15.5308 21.616 15.5308C19.4219 15.5308 17.6432 12.1592 17.6432 8.00014C17.6432 3.84106 19.4219 0.469487 21.616 0.469487C23.8101 0.469487 25.5888 3.84106 25.5888 8.00014Z" fill="white"/>
<path d="M29.1543 7.99952C29.1543 11.7259 28.5288 14.7466 27.757 14.7466C26.9855 14.7466 26.3597 11.7259 26.3597 7.99952C26.3597 4.27315 26.9855 1.25238 27.757 1.25238C28.5288 1.25238 29.1543 4.27315 29.1543 7.99952Z" fill="white"/>
</svg>
