<svg width="18" height="19" viewBox="0 0 18 19" fill="none" xmlns="http://www.w3.org/2000/svg">
<path d="M17.01 12.88C15.78 12.88 14.59 12.68 13.48 12.32C13.3061 12.2611 13.1191 12.2523 12.9405 12.2948C12.7618 12.3372 12.5988 12.4291 12.47 12.56L10.9 14.53C8.07 13.18 5.42 10.63 4.01 7.7L5.96 6.04C6.23 5.76 6.31 5.37 6.2 5.02C5.83 3.91 5.64 2.72 5.64 1.49C5.64 0.95 5.19 0.5 4.65 0.5H1.19C0.65 0.5 0 0.74 0 1.49C0 10.78 7.73 18.5 17.01 18.5C17.72 18.5 18 17.87 18 17.32V13.87C18 13.33 17.55 12.88 17.01 12.88Z" fill="white"/>
</svg>
