<svg width="23" height="18" viewBox="0 0 23 18" fill="none" xmlns="http://www.w3.org/2000/svg">
<path d="M22.2717 2.13074C21.4575 2.49268 20.5812 2.73682 19.6617 2.84608C20.6005 2.28406 21.3204 1.39382 21.6598 0.331818C20.7817 0.852925 19.8096 1.23105 18.7742 1.43518C17.9455 0.552131 16.7644 0 15.4573 0C12.948 0 10.9135 2.03452 10.9135 4.54429C10.9135 4.89993 10.9535 5.24659 11.0313 5.57976C7.25451 5.39002 3.90576 3.58121 1.66441 0.831793C1.27324 1.50262 1.04933 2.28316 1.04933 3.11675C1.04933 4.69311 1.85145 6.08423 3.07082 6.89894C2.32625 6.87511 1.6253 6.67053 1.01247 6.33017C1.01202 6.34905 1.01202 6.36839 1.01202 6.38772C1.01202 8.58905 2.57849 10.4253 4.65752 10.8434C4.27624 10.9468 3.87473 11.0026 3.46019 11.0026C3.16703 11.0026 2.88243 10.9743 2.60501 10.9208C3.18367 12.726 4.86164 14.0402 6.84985 14.0766C5.29463 15.2955 3.33564 16.0221 1.20625 16.0221C0.839813 16.0221 0.477871 16.0005 0.122223 15.9583C2.13381 17.2482 4.52218 18 7.08815 18C15.447 18 20.0174 11.0759 20.0174 5.07079C20.0174 4.87386 20.0133 4.67737 20.0048 4.48224C20.8923 3.84288 21.663 3.04211 22.2717 2.13074Z" fill="white"/>
</svg>
