<svg width="23" height="16" viewBox="0 0 23 16" fill="none" xmlns="http://www.w3.org/2000/svg">
<path d="M22.504 2.50323C22.2459 1.52258 21.4717 0.748387 20.4911 0.477419C18.7233 0 11.6266 0 11.6266 0C11.6266 0 4.52979 0 2.74915 0.477419C1.7685 0.735484 1.00721 1.50968 0.736245 2.50323C0.271729 4.28387 0.271729 8 0.271729 8C0.271729 8 0.271729 11.7161 0.749148 13.4968C1.00721 14.4774 1.78141 15.2516 2.76205 15.5226C4.52979 16 11.6266 16 11.6266 16C11.6266 16 18.7233 16 20.504 15.5226C21.4846 15.2645 22.2459 14.4903 22.5169 13.4968C22.9814 11.7161 22.9814 8 22.9814 8C22.9814 8 22.9814 4.28387 22.504 2.50323ZM9.30399 11.3806V4.61935L15.2395 8L9.30399 11.3806Z" fill="white"/>
</svg>
